<svg width="24" height="24" viewBox="0 0 24 34" fill="none" xmlns="http://www.w3.org/2000/svg">
<path d="M11.9692 3.77171C13.3497 3.77213 14.4692 5.83107 14.4692 8.37035C14.4692 8.48429 14.4658 8.59728 14.4614 8.70921C16.7293 10.2861 18.3753 13.9827 18.3754 18.4641V29.5051L20.4584 34.3323C20.9004 35.3566 20.5043 36.8667 19.7934 36.8674H14.644C14.3182 38.9922 13.2598 40.5497 12.0004 40.55C10.7409 40.55 9.68166 38.9924 9.3559 36.8674H4.00043C3.7127 36.8674 3.44984 36.5646 3.32465 36.0881C3.1995 35.6115 3.2336 35.0447 3.41254 34.6301L5.62543 29.5051V18.4641C5.62551 14.0242 7.24155 10.3561 9.47699 8.75511C9.47125 8.62821 9.46918 8.49987 9.46918 8.37035C9.46918 5.83081 10.5885 3.77171 11.9692 3.77171ZM11.0004 36.8674C11.2284 37.4279 11.5906 37.7912 12.0004 37.7912C12.4101 37.791 12.7716 37.4276 12.9995 36.8674H11.0004ZM12.0004 10.6477C9.22262 10.6477 7.12554 14.2953 7.12543 18.4641V29.9866C7.12539 30.2979 7.06761 30.6001 6.96234 30.844L5.55316 34.1086H18.4467L17.0375 30.844C16.9323 30.6001 16.8755 30.2979 16.8754 29.9866V18.4641C16.8753 14.2955 14.778 10.6481 12.0004 10.6477ZM11.9692 6.5305C11.481 6.5305 11.0736 7.17383 10.9858 8.02464C11.3174 7.93586 11.6564 7.8889 12.0004 7.8889C12.3215 7.88894 12.6383 7.92852 12.9487 8.00609C12.8569 7.1648 12.4535 6.53087 11.9692 6.5305Z" fill="#737171"/>
</svg>
