<svg width="24" height="24" viewBox="0 0 24 24" fill="none" xmlns="http://www.w3.org/2000/svg">
<path fill-rule="evenodd" clip-rule="evenodd" d="M8 3.5C8.41421 3.5 8.75 3.83579 8.75 4.25V5.50708H15.2493V4.25C15.2493 3.83579 15.5851 3.5 15.9993 3.5C16.4135 3.5 16.7493 3.83579 16.7493 4.25V5.50708H19C20.1046 5.50708 21 6.40251 21 7.50708V9.50708V18.5071C21 19.6116 20.1046 20.5071 19 20.5071H5C3.89543 20.5071 3 19.6116 3 18.5071V9.50708V7.50708C3 6.40251 3.89543 5.50708 5 5.50708H7.25V4.25C7.25 3.83579 7.58579 3.5 8 3.5ZM19.5 9.50708H4.5V18.5071C4.5 18.7832 4.72386 19.0071 5 19.0071H19C19.2761 19.0071 19.5 18.7832 19.5 18.5071V9.50708Z" fill="#737171"/>
<path d="M6 11.5078H10V15.5078H6V11.5078Z" fill="#737171"/>
</svg>
