<svg width="16" height="16" viewBox="0 0 16 16" fill="none" xmlns="http://www.w3.org/2000/svg">
<path d="M7.50894 0.183332C7.79068 -0.0611104 8.20932 -0.0611107 8.49107 0.183332L9.51665 1.07312C9.69049 1.22395 9.92401 1.28652 10.15 1.24283L11.4831 0.985034C11.8493 0.914215 12.2118 1.12353 12.3336 1.4761L12.7769 2.75947C12.852 2.97702 13.023 3.14796 13.2405 3.22311L14.5239 3.66639C14.8765 3.78817 15.0858 4.15072 15.015 4.51694L14.7572 5.85002C14.7135 6.07599 14.776 6.30951 14.9269 6.48335L15.8167 7.50894C16.0611 7.79068 16.0611 8.20932 15.8167 8.49106L14.9269 9.51665C14.776 9.69049 14.7135 9.92401 14.7572 10.15L15.015 11.4831C15.0858 11.8493 14.8765 12.2118 14.5239 12.3336L13.2405 12.7769C13.023 12.852 12.852 13.023 12.7769 13.2405L12.3336 14.5239C12.2118 14.8765 11.8493 15.0858 11.4831 15.015L10.15 14.7572C9.92401 14.7135 9.69049 14.776 9.51665 14.9269L8.49107 15.8167C8.20932 16.0611 7.79068 16.0611 7.50894 15.8167L6.48335 14.9269C6.30951 14.776 6.07599 14.7135 5.85002 14.7572L4.51694 15.015C4.15072 15.0858 3.78817 14.8765 3.66639 14.5239L3.22311 13.2405C3.14796 13.023 2.97702 12.852 2.75947 12.7769L1.4761 12.3336C1.12353 12.2118 0.914215 11.8493 0.985034 11.4831L1.24283 10.15C1.28652 9.92401 1.22395 9.69049 1.07312 9.51665L0.183332 8.49107C-0.0611104 8.20932 -0.0611107 7.79068 0.183332 7.50894L1.07312 6.48335C1.22395 6.30951 1.28652 6.07599 1.24283 5.85002L0.985034 4.51694C0.914215 4.15072 1.12353 3.78817 1.4761 3.66639L2.75947 3.22311C2.97702 3.14796 3.14796 2.97702 3.22311 2.75947L3.66639 1.4761C3.78817 1.12353 4.15072 0.914215 4.51694 0.985034L5.85002 1.24283C6.07599 1.28652 6.30951 1.22395 6.48335 1.07312L7.50894 0.183332Z" fill="#27AE60"/>
<path fill-rule="evenodd" clip-rule="evenodd" d="M11.6526 5.94735C11.9025 6.19728 11.9025 6.60251 11.6526 6.85244L7.65258 10.8524C7.40265 11.1024 6.99742 11.1024 6.74749 10.8524L4.34749 8.45244C4.09755 8.20251 4.09755 7.79728 4.34749 7.54735C4.59742 7.29741 5.00265 7.29741 5.25258 7.54735L7.20003 9.4948L10.7475 5.94735C10.9974 5.69741 11.4026 5.69741 11.6526 5.94735Z" fill="white"/>
</svg>
