<svg width="24" height="24" viewBox="0 0 24 34" fill="none" xmlns="http://www.w3.org/2000/svg">
<path d="M11.0176 7.01224C11.4747 6.26041 12.5658 6.25944 13.0244 7.01028L20.0361 18.4956C20.1487 18.68 20.208 18.892 20.208 19.1079V37.688C20.208 37.7846 20.1297 37.8627 20.0332 37.8628H15.002C14.9053 37.8628 14.8272 37.7846 14.8271 37.688L14.8242 28.1617C14.8239 27.4302 14.2314 26.8376 13.5 26.8374H10.502C9.77029 26.8376 9.17676 27.4309 9.17676 28.1626V37.688C9.17676 37.7847 9.0986 37.8628 9.00195 37.8628H4.03906C3.94242 37.8628 3.86426 37.7847 3.86426 37.688V19.106C3.86427 18.8907 3.9233 18.6796 4.03516 18.4956L11.0176 7.01224Z" stroke="#737171" stroke-width="1.65"/>
</svg>
