<svg width="48" height="48" viewBox="0 0 48 48" fill="none" xmlns="http://www.w3.org/2000/svg">
<rect width="48" height="25.284" fill="white"/>
<path d="M32.3363 10.8325C33.1201 10.9761 33.9129 11.0853 34.6867 11.2729C40.552 12.6673 44.9371 17.5161 45.6127 23.3338C46.048 26.9928 44.9894 30.6716 42.6628 33.5846C40.3363 36.4976 36.9262 38.4138 33.161 38.9241C32.5462 39.0057 31.9258 39.0417 31.3053 39.0316C30.9225 39.0316 30.7143 39.1435 30.5243 39.4658C28.9313 42.1735 27.3193 44.8714 25.7127 47.5693C25.6454 47.682 25.5754 47.7921 25.4472 48V34.6558H25.9118C27.6981 34.6558 29.4863 34.6558 31.2762 34.6558C36.1723 34.6487 40.5347 30.8788 41.0839 26.1815C41.7067 20.8473 38.0835 16.2063 32.6082 15.3405C32.1296 15.2686 31.646 15.2326 31.1616 15.2331C29.2705 15.2216 27.3793 15.2286 25.4336 15.2286V10.8325H32.3363Z" fill="#E2504B"/>
<path d="M22.1577 10.8325V15.2286H16.457C11.3008 15.2286 6.87113 19.0972 6.43652 23.9777C5.98192 29.0723 9.46602 33.5618 14.604 34.4831C15.199 34.5881 15.8022 34.6432 16.4069 34.6478C18.2981 34.669 20.1893 34.6557 22.1204 34.6557V38.9832C22.0986 39.0025 22.0877 39.0219 22.0768 39.021C19.2228 38.9691 16.3488 39.3002 13.5166 38.7682C7.47666 37.6338 2.74876 32.7224 1.9732 26.8051C0.978519 19.2522 6.18467 12.3792 13.9166 11.0386C14.3603 10.962 14.8067 10.9012 15.2513 10.8325H22.1577Z" fill="#E2504B"/>
</svg>
