<svg width="32" height="32" viewBox="0 0 32 32" fill="none" xmlns="http://www.w3.org/2000/svg">
<path d="M15.1375 24C14.9393 24 14.7708 23.9301 14.632 23.7903C14.4932 23.6504 14.4238 23.4806 14.4238 23.2809V17.4382H8.71375C8.51549 17.4382 8.34696 17.3683 8.20818 17.2285C8.06939 17.0886 8 16.9189 8 16.7191V15.1311C8 14.9114 8.06939 14.7416 8.20818 14.6217C8.34696 14.4819 8.51549 14.412 8.71375 14.412H14.4238V8.7191C14.4238 8.51935 14.4932 8.34956 14.632 8.20974C14.7708 8.06991 14.9393 8 15.1375 8H16.8625C17.0805 8 17.2491 8.06991 17.368 8.20974C17.5068 8.34956 17.5762 8.51935 17.5762 8.7191V14.412H23.2862C23.4845 14.412 23.653 14.4819 23.7918 14.6217C23.9306 14.7416 24 14.9114 24 15.1311V16.7191C24 16.9189 23.9306 17.0886 23.7918 17.2285C23.653 17.3683 23.4845 17.4382 23.2862 17.4382H17.5762V23.2809C17.5762 23.4806 17.5068 23.6504 17.368 23.7903C17.2491 23.9301 17.0805 24 16.8625 24H15.1375Z" fill="white"/>
</svg>
