<svg width="20" height="20" viewBox="0 0 20 20" fill="none" xmlns="http://www.w3.org/2000/svg">
<path d="M9.16699 2.5C12.8487 2.50018 15.833 5.4852 15.833 9.16699C15.8329 10.7827 15.2571 12.2631 14.3008 13.417L17.1074 16.2236C17.3515 16.4677 17.3515 16.8633 17.1074 17.1074C16.8633 17.3515 16.4677 17.3515 16.2236 17.1074L13.417 14.3008C12.2631 15.2571 10.7827 15.8329 9.16699 15.833C5.4852 15.833 2.50018 12.8487 2.5 9.16699C2.5 5.48509 5.48509 2.5 9.16699 2.5ZM9.16699 3.75C6.17545 3.75 3.75 6.17545 3.75 9.16699C3.75018 12.1584 6.17556 14.583 9.16699 14.583C12.1583 14.5828 14.5828 12.1583 14.583 9.16699C14.583 6.17556 12.1584 3.75018 9.16699 3.75Z" fill="#737171"/>
</svg>
