<svg width="24" height="24" viewBox="0 0 24 34" fill="none" xmlns="http://www.w3.org/2000/svg">
<path fill-rule="evenodd" clip-rule="evenodd" d="M11.4258 11.7858C11.4258 9.17012 12.5786 7.04966 14.0008 7.04966H18.0008C18.8706 7.04966 19.5758 8.34664 19.5758 9.94655V28.3395C19.5758 29.9394 18.8706 31.2364 18.0008 31.2364H14.0008C12.5786 31.2364 11.4258 29.1159 11.4258 26.5002V11.7858ZM14.0008 9.16485C13.2138 9.16485 12.5758 10.3383 12.5758 11.7858V26.5002C12.5758 27.9477 13.2138 29.1212 14.0008 29.1212H18.0008C18.2355 29.1212 18.4258 28.7712 18.4258 28.3395V9.94655C18.4258 9.51483 18.2355 9.16485 18.0008 9.16485H14.0008Z" fill="#737171"/>
<path fill-rule="evenodd" clip-rule="evenodd" d="M4.42578 9.94655C4.42578 8.34664 5.13093 7.04966 6.00078 7.04966H10.0008C11.4229 7.04966 12.5758 9.17012 12.5758 11.7858V26.5002C12.5758 29.1159 11.4229 31.2364 10.0008 31.2364H6.00078C5.13093 31.2364 4.42578 29.9394 4.42578 28.3395V9.94655ZM6.00078 9.16485C5.76606 9.16485 5.57578 9.51483 5.57578 9.94655V28.3395C5.57578 28.7712 5.76606 29.1212 6.00078 29.1212H10.0008C10.7878 29.1212 11.4258 27.9477 11.4258 26.5002V11.7858C11.4258 10.3383 10.7878 9.16485 10.0008 9.16485H6.00078Z" fill="#737171"/>
<path fill-rule="evenodd" clip-rule="evenodd" d="M4.00078 12.8434C3.76606 12.8434 3.57578 13.1934 3.57578 13.6251V32.0181C3.57578 32.4498 3.76606 32.7998 4.00078 32.7998H9.66745C10.0082 32.7998 10.3398 33.0031 10.6124 33.3791L11.1458 34.1149C11.6524 34.8138 12.3491 34.8138 12.8558 34.1149L13.3891 33.3791C13.6617 33.0031 13.9933 32.7998 14.3341 32.7998H20.0008C20.2355 32.7998 20.4258 32.4498 20.4258 32.0181V13.6251C20.4258 13.1934 20.2355 12.8434 20.0008 12.8434H19.0008V10.7282H20.0008C20.8706 10.7282 21.5758 12.0252 21.5758 13.6251V32.0181C21.5758 33.618 20.8706 34.915 20.0008 34.915H14.3341C14.2422 34.915 14.1527 34.9698 14.0791 35.0713L13.5458 35.807C12.6302 37.07 11.3713 37.07 10.4558 35.807L9.92245 35.0713C9.84888 34.9698 9.75941 34.915 9.66745 34.915H4.00078C3.13093 34.915 2.42578 33.618 2.42578 32.0181V13.6251C2.42578 12.0252 3.13093 10.7282 4.00078 10.7282H5.00078V12.8434H4.00078Z" fill="#737171"/>
<path fill-rule="evenodd" clip-rule="evenodd" d="M6.42578 13.6251C6.42578 13.041 6.68322 12.5675 7.00078 12.5675H10.0008C10.3183 12.5675 10.5758 13.041 10.5758 13.6251C10.5758 14.2092 10.3183 14.6827 10.0008 14.6827H7.00078C6.68322 14.6827 6.42578 14.2092 6.42578 13.6251Z" fill="#737171"/>
<path fill-rule="evenodd" clip-rule="evenodd" d="M6.42578 19.143C6.42578 18.5589 6.68322 18.0854 7.00078 18.0854H10.0008C10.3183 18.0854 10.5758 18.5589 10.5758 19.143C10.5758 19.7271 10.3183 20.2006 10.0008 20.2006H7.00078C6.68322 20.2006 6.42578 19.7271 6.42578 19.143Z" fill="#737171"/>
<path fill-rule="evenodd" clip-rule="evenodd" d="M6.42578 24.6609C6.42578 24.0768 6.68322 23.6033 7.00078 23.6033H10.0008C10.3183 23.6033 10.5758 24.0768 10.5758 24.6609C10.5758 25.245 10.3183 25.7185 10.0008 25.7185H7.00078C6.68322 25.7185 6.42578 25.245 6.42578 24.6609Z" fill="#737171"/>
<path fill-rule="evenodd" clip-rule="evenodd" d="M13.4258 24.6609C13.4258 24.0768 13.6832 23.6033 14.0008 23.6033H17.0008C17.3183 23.6033 17.5758 24.0768 17.5758 24.6609C17.5758 25.245 17.3183 25.7185 17.0008 25.7185H14.0008C13.6832 25.7185 13.4258 25.245 13.4258 24.6609Z" fill="#737171"/>
<path fill-rule="evenodd" clip-rule="evenodd" d="M13.4258 14.5448C13.4258 13.4528 13.9071 12.5675 14.5008 12.5675H16.5008C17.0945 12.5675 17.5758 13.4528 17.5758 14.5448V18.2234C17.5758 19.3154 17.0945 20.2006 16.5008 20.2006H14.5008C13.9071 20.2006 13.4258 19.3154 13.4258 18.2234V14.5448ZM14.5758 14.6827V18.0854H16.4258V14.6827H14.5758Z" fill="#737171"/>
</svg>
