<svg width="24" height="24" viewBox="0 0 24 24" fill="none" xmlns="http://www.w3.org/2000/svg">
<path d="M22 12.0001C22 17.5468 17.5036 22.0432 11.9569 22.0432C6.41026 22.0432 1.91382 17.5468 1.91382 12.0001C1.91382 6.45348 6.41026 1.95703 11.9569 1.95703C17.5036 1.95703 22 6.45348 22 12.0001Z" fill="url(#paint0_linear_1_321)"/>
<path d="M11.4376 5.92532C11.621 5.5537 12.151 5.5537 12.3344 5.92532L13.822 8.93952C13.8948 9.08709 14.0356 9.18937 14.1984 9.21304L17.5248 9.69639C17.9349 9.75598 18.0987 10.26 17.8019 10.5492L15.3949 12.8955C15.2771 13.0103 15.2233 13.1758 15.2511 13.338L15.8193 16.6509C15.8894 17.0594 15.4607 17.3709 15.0939 17.178L12.1187 15.6139C11.973 15.5373 11.799 15.5373 11.6533 15.6139L8.67815 17.178C8.31133 17.3709 7.88262 17.0594 7.95267 16.6509L8.52088 13.338C8.5487 13.1758 8.49493 13.0103 8.37708 12.8955L5.97011 10.5492C5.67335 10.26 5.8371 9.75598 6.24721 9.69639L9.57357 9.21304C9.73643 9.18937 9.87721 9.08709 9.95004 8.93952L11.4376 5.92532Z" fill="white"/>
<defs>
<linearGradient id="paint0_linear_1_321" x1="18.704" y1="-6.65639" x2="-7.75491" y2="10.2332" gradientUnits="userSpaceOnUse">
<stop stop-color="#FFB800"/>
<stop offset="1" stop-color="#FF8A00"/>
</linearGradient>
</defs>
</svg>
