<svg width="24" height="24" viewBox="0 0 24 24" fill="none" xmlns="http://www.w3.org/2000/svg">
<path d="M14.999 9.05078C16.4459 9.05078 17.6209 10.1996 17.6689 11.6348L19.25 10.8447C20.3636 10.2879 21.6735 11.0978 21.6738 12.3428V18.1074C21.6735 19.3523 20.3636 20.1622 19.25 19.6055L17.6689 18.8145C17.6219 20.2505 16.4466 21.4004 14.999 21.4004H4.99902C3.52181 21.4003 2.32431 20.2028 2.32422 18.7256V11.7256C2.32432 10.2484 3.52182 9.05089 4.99902 9.05078H14.999ZM9.65332 12.1592C8.87296 11.634 7.82244 12.1931 7.82227 13.1338V17.3174C7.8226 18.2581 8.87299 18.8165 9.65332 18.291L12.7588 16.2002C13.4502 15.7345 13.4501 14.7167 12.7588 14.251L9.65332 12.1592ZM7.43652 7.06152C8.85217 5.64587 11.1478 5.64587 12.5635 7.06152C12.8073 7.3056 12.8074 7.7013 12.5635 7.94531C12.3195 8.18932 11.9238 8.18918 11.6797 7.94531C10.7522 7.01782 9.24781 7.01782 8.32031 7.94531C8.07622 8.18918 7.68053 8.18932 7.43652 7.94531C7.19256 7.7013 7.19268 7.3056 7.43652 7.06152ZM6.02246 5.64746C8.21916 3.45076 11.7808 3.45076 13.9775 5.64746C14.2216 5.89152 14.2215 6.28718 13.9775 6.53125C13.7335 6.77532 13.3378 6.77529 13.0938 6.53125C11.3852 4.82271 8.61479 4.82271 6.90625 6.53125C6.66217 6.77529 6.26653 6.77532 6.02246 6.53125C5.77847 6.28718 5.77844 5.89152 6.02246 5.64746ZM4.6084 4.2334C7.58615 1.25565 12.4139 1.25565 15.3916 4.2334C15.6357 4.47748 15.6357 4.87311 15.3916 5.11719C15.1475 5.36122 14.7519 5.36125 14.5078 5.11719C12.0182 2.6276 7.98178 2.6276 5.49219 5.11719C5.24812 5.36125 4.85248 5.36122 4.6084 5.11719C4.36432 4.87311 4.36432 4.47748 4.6084 4.2334Z" fill="#1D1919"/>
</svg>
